<svg height="511pt" viewBox="-65 1 511 511.99974" width="511pt" xmlns="http://www.w3.org/2000/svg"><g fill-rule="evenodd"><path d="m58.382812 55.539062 16.816407-9.710937v-35.871094l-64.695313 37.351563 31.0625 17.9375zm0 0" fill="#73ca5b"/><path d="m41.566406 84.664062v-19.417968l-31.066406-17.9375.003906 74.707031 31.0625-17.9375zm0 0" fill="#73ca5b"/><path d="m58.382812 113.789062-16.816406-9.710937-31.066406 17.9375 64.699219 37.351563v-35.871094zm0 0" fill="#73ca5b"/><path d="m92.011719 113.789062-16.8125 9.707032v35.871094l64.695312-37.351563-31.066406-17.9375zm0 0" fill="#73ca5b"/><path d="m108.828125 84.664062v19.414063l31.066406 17.9375v-74.707031l-31.066406 17.9375zm0 0" fill="#73ca5b"/><path d="m92.011719 55.539062 16.816406 9.707032 31.066406-17.9375-64.695312-37.351563v35.871094zm0 0" fill="#73ca5b"/><path d="m108.828125 65.246094-16.816406-9.707032-16.8125-9.710937-16.816407 9.710937-16.816406 9.707032v38.832031l16.816406 9.710937 16.816407 9.707032 16.8125-9.707032 16.816406-9.710937zm0 0" fill="#a6f074"/><path d="m267.414062 138.21875 21.316407-12.308594v-45.476562l-82.019531 47.355468 39.382812 22.738282zm0 0" fill="#53c9d8"/><path d="m246.09375 175.140625v-24.613281l-39.382812-22.738282v94.707032l39.382812-22.738282zm0 0" fill="#53c9d8"/><path d="m267.414062 212.0625-21.320312-12.304688-39.382812 22.738282 82.019531 47.351562v-45.476562zm0 0" fill="#53c9d8"/><path d="m310.046875 212.0625-21.316406 12.308594v45.476562l82.015625-47.351562-39.382813-22.738282zm0 0" fill="#53c9d8"/><path d="m331.363281 175.140625v24.617187l39.382813 22.738282v-94.707032l-39.382813 22.738282zm0 0" fill="#53c9d8"/><path d="m310.046875 138.21875 21.316406 12.308594 39.382813-22.738282-82.015625-47.355468v45.476562zm0 0" fill="#53c9d8"/><path d="m331.363281 150.527344-42.632812-24.617188-21.316407 12.308594-21.320312 12.308594v49.230468l21.320312 12.304688 21.316407 12.308594 21.316406-12.308594 21.316406-12.304688zm0 0" fill="#8eecf0"/><path d="m132.347656 349.113281 24.761719-14.296875v-52.828125l-95.269531 55.007813 45.746094 26.414062zm0 0" fill="#fd4848"/><path d="m107.585938 392.003906v-28.59375l-45.75-26.414062.003906 110.011718 45.746094-26.410156zm0 0" fill="#fd4848"/><path d="m132.347656 434.894531-24.761718-14.296875-45.75 26.410156 95.273437 55.007813v-52.824219zm0 0" fill="#fd4848"/><path d="m181.875 434.894531-24.765625 14.296875v52.824219l95.277344-55.007813-45.75-26.410156zm0 0" fill="#fd4848"/><path d="m206.636719 392.003906v28.59375l45.75 26.410156v-110.011718l-45.75 26.414062zm0 0" fill="#fd4848"/><path d="m181.875 349.113281 24.761719 14.296875 45.75-26.414062-95.277344-55.007813v52.828125zm0 0" fill="#fd4848"/><path d="m206.636719 363.410156-24.761719-14.296875-24.765625-14.296875-49.523437 28.59375v57.1875l49.523437 28.59375 24.765625-14.296875 24.761719-14.296875zm0 0" fill="#ff836c"/></g><path d="m262.300781 335.695312c-.402343-3.046874-2.257812-5.824218-4.917969-7.359374l-95.273437-55.007813c-3.050781-1.757813-6.949219-1.769531-10 0l-15.242187 8.796875c-4.78125 2.761719-6.421876 8.878906-3.660157 13.664062 2.761719 4.78125 8.875 6.421876 13.660157 3.660157l.242187-.136719v29.730469l-39.523437 22.816406-25.75-14.863281 5.300781-3.058594c4.785156-2.761719 6.421875-8.878906 3.660156-13.664062-2.761719-4.78125-8.875-6.421876-13.660156-3.660157l-20.300781 11.722657c-3.050782 1.757812-5 5.136718-5 8.660156v110.011718c0 3.539063 1.980468 6.988282 5.085937 8.710938l95.1875 54.957031c3.050781 1.765625 6.949219 1.765625 10 0l95.199219-54.960937c3.054687-1.878906 5.078125-5.058594 5.078125-8.707032v-110.011718c0-.433594-.03125-.875-.085938-1.300782zm-190.460937 18.625 25.746094 14.863282v45.636718l-25.746094 14.867188zm35.746094 77.824219 39.523437 22.820313v29.730468l-65.269531-37.683593zm59.527343 22.820313 39.523438-22.820313 25.746093 14.863281-65.269531 37.683594zm0-155.652344 65.269531 37.683594-25.746093 14.863281-39.523438-22.816406zm49.523438 115.507812v-45.636718l25.746093-14.867188v75.371094zm-99.050781-45.636718 39.523437-22.820313 39.523437 22.820313v45.636718l-39.523437 22.820313-39.523437-22.820313zm0 0"/><path d="m380.75 127.789062c0-3.53125-1.949219-6.898437-5-8.664062l-82.019531-47.351562c-3.050781-1.761719-6.953125-1.761719-10.003907 0l-82.015624 47.351562c-3.050782 1.765625-5 5.136719-5 8.664062v94.707032c0 3.535156 1.980468 6.984375 5.085937 8.707031l81.929687 47.304687c3.046876 1.765626 6.957032 1.765626 10.003907 0l81.933593-47.304687c3.089844-1.773437 5.082032-5.132813 5.082032-8.707031v-94.707032zm-164.039062 17.320313 19.382812 11.191406v37.679688l-19.382812 11.191406zm114.652343-6.132813-32.632812-18.839843v-22.378907l52.015625 30.03125zm-42.632812 73.847657-32.632813-18.84375v-37.679688l32.632813-18.839843 32.632812 18.839843v37.679688zm-10.003907-92.6875-32.632812 18.839843-19.378906-11.1875 52.011718-30.03125zm-32.632812 91.167969 32.632812 18.839843v22.378907l-52.015624-30.027344zm52.636719 18.839843 32.632812-18.839843 19.382813 11.191406-52.015625 30.03125zm42.632812-36.164062v-37.679688l19.382813-11.191406v60.0625zm0 0"/><path d="m40.359375 40.082031c1.695313 0 3.414063-.433593 4.992187-1.34375l.230469-.132812c4.785157-2.761719 6.421875-8.878907 3.660157-13.664063-2.761719-4.785156-8.875-6.421875-13.660157-3.660156l-.234375.136719c-4.785156 2.761719-6.421875 8.878906-3.660156 13.660156 1.851562 3.210937 5.214844 5.003906 8.671875 5.003906zm0 0"/><path d="m5.25 130.507812c.113281.070313 64.945312 37.519532 64.945312 37.519532 3.054688 1.765625 6.949219 1.769531 10.003907 0l64.605469-37.300782c3.097656-1.757812 5.089843-5.148437 5.089843-8.710937v-74.707031c0-3.523438-1.949219-6.898438-5-8.660156l-64.695312-37.351563c-6.515625-3.761719-15.003907 1.128906-15.003907 8.660156v30.097657l-23.628906 13.644531-16.109375-9.300781c-.027343-7.546876-8.457031-12.390626-14.992187-8.613282l-4.964844 2.863282c-3.050781 1.773437-5 5.128906-5 8.660156v74.707031c0 3.429687 1.832031 6.691406 4.75 8.492187zm26.316406-59.488281v27.285157l-11.0625 6.386718v-40.058594zm98.328125 33.671875-11.066406-6.386718v-27.285157l11.066406-6.386719zm-21.066406 10.9375 11.066406 6.386719-34.695312 20.03125v-12.777344zm-43.632813 26.417969-34.691406-20.03125 11.066406-6.386719 23.628907 13.640625v12.777344zm54.695313-94.738281-11.0625 6.390625-23.628906-13.644531v-12.773438zm-68.320313 23.710937 23.628907-13.640625 23.628906 13.640625v27.285157l-23.628906 13.644531-23.628907-13.644531zm0 0"/><path d="m102.246094 302.117188-.234375.136718c-4.78125 2.765625-6.414063 8.882813-3.648438 13.664063 1.855469 3.203125 5.214844 4.992187 8.667969 4.992187 1.699219 0 3.421875-.433594 5-1.34375l.234375-.136718c4.777344-2.765626 6.410156-8.882813 3.644531-13.664063s-8.882812-6.417969-13.664062-3.648437zm0 0"/></svg>