<svg height="496pt" viewBox="0 0 496 496" width="496pt" xmlns="http://www.w3.org/2000/svg" xmlns:xlink="http://www.w3.org/1999/xlink"><linearGradient id="a" gradientUnits="userSpaceOnUse" x1="248" x2="248" y1="496" y2="0"><stop offset="0" stop-color="#9f2fff"/><stop offset="1" stop-color="#0bb1d3"/></linearGradient><path d="m384 310.609375v-185.570313l-56-65.328124-56 65.328124v145.417969l-33.785156-84.449219-83.023438-36.894531-27.726562 83.167969 68.613281 167.71875h-1.652344l-24-16h-20.839843l-11.035157 7.351562-36.007812-100.832031-66.359375-37.917969-28.664063 66.886719 40.199219 136.679688-5.957031 23.832031h-41.761719v16h496v-16h-43.472656l-23.191406-38.65625-15.59375-5.199219 82.257812-97.214843v-66.929688h-66.960938zm0 96.582031v-11.878906l51.3125-51.3125h35.441406l-70.578125 83.40625zm-64-175.191406v140.6875l-4.6875-4.6875h-27.3125v-220.6875l32 32v36.6875h16v-36.6875l32-32v244.6875h-28.6875l-3.3125-3.3125v-156.6875zm104 65.390625v35.296875l-40 40v-41.015625zm-58.894531-169.804687-37.105469 37.101562-37.105469-37.101562 37.105469-43.296876zm-200.296875 43.300781 55.855468 24.824219-24.601562 43.050781-49.734375-12.425781zm-15.417969 72.707031 44.890625 11.222656 26.855469 60.429688 14.625-6.492188-26.800781-60.296875 21.765624-38.097656 41.273438 103.183594v65.015625l-3.847656 3.082031-25.28125-56.886719-14.625 6.492188 26.992187 60.722656-13.597656 10.878906-9.640625 19.265625-11.054688-22.113281h-7.570312zm-24.558594 156.902344-1.265625.847656-22.542968 27.753906-28.128907-91.410156 20.402344-25.496094zm-63.222656 46.222656-33.617187-114.292969 29.566406 9.855469 30.503906 99.144531zm-17.785156-171.320312 40.085937 22.90625-22.671875 28.34375-34.453125-11.488282zm390.046875 204.601562h-375.632813l4.289063-17.152344 37.898437-7.574218 33.039063-41.304688.421875-.289062 12.304687 24.617187 10.511719 4.207031-11.375 17.054688 13.3125 8.875 13.238281-19.867188 17.136719 6.859375 5.9375-14.859375-37.167969-14.863281-10.480468-20.96875 7.121093-4.734375h11.160157l24 16h21.476562l11.058594 22.113281c7.976562 15.964844 24.03125 25.886719 41.878906 25.886719v-16c-8.617188 0-16.566406-3.535156-22.28125-9.542969l12.648438-25.304687 8.046874-6.433594 11.625 23.25 18.386719 9.191406 7.160157-14.3125-13.617188-6.808594-10.769531-21.542968 15.609375-12.496094h17.878906l24 24h22.367188l-8 16h-27.054688v16h24v24h16v-30.113281l9.566406-19.125 25.664063 32.078125 23.441406 7.816406zm46.128906-152h-40v-40h40zm-448-120h-16v-16h16zm-16 16h-16v-16h16zm0 0h16v16h-16zm16 0v-16h16v16zm328-208h-16v-16h16zm-16 0v16h-16v-16zm0 32v-16h16v16zm16-16v-16h16v16zm120 176h-16v-16h16zm-16 0v16h-16v-16zm0 16h16v16h-16zm16-16h16v16h-16zm-368-160c0 13.230469-10.769531 24-24 24h-8v16h8c13.230469 0 24 10.769531 24 24v16h16v-16c0-13.230469 10.769531-24 24-24h8v-16h-8c-13.230469 0-24-10.769531-24-24v-16h-16zm16.246094 32c-3.140625 2.335938-5.910156 5.105469-8.246094 8.246094-2.335938-3.140625-5.105469-5.910156-8.246094-8.246094 3.140625-2.335938 5.910156-5.105469 8.246094-8.246094 2.335938 3.140625 5.105469 5.910156 8.246094 8.246094zm-16.246094-80h16v16h-16zm-64 72h16v16h-16zm128 16v-16h16v16zm-64 56h16v16h-16zm0 0" fill="url(#a)"/></svg>